# AST/ASF file generated using VICON BodyLanguage
# -----------------------------------------------
:version 1.10
:name VICON
:units
  mass 1.0
  length 0.45
  angle deg
:documentation
   .ast/.asf automatically generated from VICON data using
   VICON BodyBuilder and BodyLanguage model FoxedUp or BRILLIANT.MOD
:root
   order TX TY TZ RX RY RZ
   axis XYZ
   position 0 0 0  
   orientation 0 0 0 
:bonedata
  begin
     id 1 
     name lhipjoint
     direction 0.645893 -0.654526 0.392961 
     length 2.38111 
     axis 0 0 0  XYZ
  end
  begin
     id 2 
     name lfemur
     direction 0.34202 -0.939693 0  
     length 6.6822  
     axis 0 0 20  XYZ
    dof rx ry rz
    limits (-160.0 20.0)
           (-70.0 70.0)
           (-60.0 70.0)
  end
  begin
     id 3 
     name ltibia
     direction 0.34202 -0.939693 0   
     length 6.93904   
     axis 0 0 20   XYZ
    dof rx
    limits (-10.0 170.0)
  end
  begin
     id 4 
     name lfoot
     direction 0.0694967 -0.190941 0.979138   
     length 2.13616   
     axis -90 7.62852e-016 20   XYZ
    dof rx rz
    limits (-45.0 90.0)
           (-70.0 20.0)
  end
  begin
     id 5 
     name ltoes
     direction 1.535e-011 -4.2202e-011 1   
     length 1.07536   
     axis -90 7.62852e-016 20   XYZ
    dof rx
    limits (-90.0 20.0)
  end
  begin
     id 6 
     name rhipjoint
     direction -0.700219 -0.612087 0.367481   
     length 2.54621  
     axis 0 0 0  XYZ 
  end
  begin
     id 7 
     name rfemur
     direction -0.34202 -0.939693 0   
     length 6.55353   
     axis 0 0 -20   XYZ
    dof rx ry rz
    limits (-160.0 20.0)
           (-70.0 70.0)
           (-70.0 60.0)
  end
  begin
     id 8 
     name rtibia
     direction -0.34202 -0.939693 0   
     length 6.8736   
     axis 0 0 -20   XYZ
    dof rx
    limits (-10.0 170.0)
 end
 begin
     id 9 
     name rfoot
     direction -0.0679995 -0.186827 0.980037   
     length 2.1218  
     axis -90 -7.62852e-016 -20   XYZ
    dof rx rz
    limits (-45.0 90.0)
           (-20.0 70.0)
  end
  begin
     id 10 
     name rtoes
     direction -1.53589e-011 -4.21772e-011 1   
     length 1.06864   
     axis -90 -7.62852e-016 -20   XYZ
    dof rx
    limits (-90.0 20.0)
  end
  begin
     id 11 
     name lowerback
     direction -0.0416607 0.996347 -0.0745409   
     length 2.12205   
     axis 0 0 0   XYZ
    dof rx ry rz
    limits (-20.0 45.0)
           (-30.0 30.0)
           (-30.0 30.0)
  end
  begin
     id 12 
     name upperback
     direction -0.000153993 0.999276 -0.0380568   
     length 2.12759   
     axis 0 0 0   XYZ
    dof rx ry rz
    limits (-20.0 45.0)
           (-30.0 30.0)
           (-30.0 30.0)
  end
  begin
     id 13 
     name thorax
     direction 0.0187671 0.999821 -0.00241421   
     length 2.13704   
     axis 0 0 0   XYZ
    dof rx ry rz
    limits (-20.0 45.0)
           (-30.0 30.0)
           (-30.0 30.0)
  end
  begin
     id 14 
     name lowerneck
     direction 0.0268157 0.964865 0.261374   
     length 1.65253   
     axis 0 0 0   XYZ
    dof rx ry rz
    limits (-20.0 45.0)
           (-30.0 30.0)
           (-30.0 30.0)
  end
  begin
     id 15 
     name upperneck
     direction 0.00263774 0.939908 -0.341418   
     length 1.72375   
     axis 0 0 0   XYZ
    dof rx ry rz
    limits (-20.0 45.0)
           (-30.0 30.0)
           (-30.0 30.0)
  end
  begin
     id 16
     name head
     direction -0.00526001 0.989001 -0.147818  
     length 1.74878  
     axis 0 0 0   XYZ
    dof rx ry rz
    limits (-20.0 45.0)
           (-30.0 30.0)
           (-30.0 30.0)
  end
  begin
     id 17 
     name lclavicle
     direction 0.881214 0.461162 -0.103884  
     length 3.25108  
     axis 0 0 0   XYZ
    dof ry rz
    limits (-20.0 10.0)
           (0.0 20.0)
  end
  begin
     id 18 
     name lhumerus
     direction 1 -4.4899e-011 3.38092e-027   
     length 4.87408   
     axis 180 -30 -90   XYZ
    dof rx ry rz
    limits (-60.0 90.0)
           (-90.0 90.0)
           (-90.0 90.0)
  end
  begin
     id 19
     name lradius
     direction 1 -4.48931e-011 9.96288e-027   
     length 2.76729   
     axis 180 -30 -90   XYZ
    dof rx
    limits (-10.0 170.0)
  end
  begin
     id 20
     name lwrist
     direction 1 -4.4896e-011 1.50617e-026   
     length 1.38364   
     axis -9.31234e-015 90 90   XYZ
    dof ry
    limits (-180.0 0.0)
 end
  begin
     id 21 
     name lhand
     direction 1 -4.49038e-011 3.01286e-026   
     length 0.98922   
     axis -1.92217e-014 90 90   XYZ
    dof rx rz
    limits (-90.0 90.0)
           (-45.0 45.0)
  end
  begin
     id 22 
     name lfingers
     direction 1 -4.49051e-011 6.02588e-026   
     length 0.797535   
     axis -3.84436e-014 90 90   XYZ
    dof rx
    limits (0.0 90.0)
  end
  begin
     id 23
     name lthumb
     direction 0.707107 -6.34901e-011 0.707107   
     length 1.14511   
     axis -90 45 2.19363e-014   XYZ
    dof rx rz
    limits (-45.0 45.0)
           (-45.0 45.0)
  end
  begin
     id 24 
     name rclavicle
     direction -0.893894 0.441652 -0.0767889   
     length 3.29361  
     axis 0 0 0   XYZ 
    dof ry rz
    limits (-10.0 20.0)
           (-20.0 0.0)
  end
  begin
     id 25 
     name rhumerus
     direction -1 -4.48945e-011 8.0491e-028  
     length 4.71404   
     axis 180 30 90   XYZ
    dof rx ry rz
    limits (-90.0 60.0)
           (-90.0 90.0)
           (-90.0 90.0)
  end
  begin
     id 26 
     name rradius
     direction -1 -4.48986e-011 9.27795e-027   
     length 2.83468   
     axis 180 30 90   XYZ
    dof rx
    limits (-10.0 170.0)
  end
  begin
     id 27 
     name rwrist
     direction -1 -4.49029e-011 1.5064e-026   
     length 1.41734   
     axis -9.31234e-015 -90 -90   XYZ
    dof ry
    limits (-180.0 0.0)
  end
  begin
     id 28
     name rhand
     direction -1 -4.48857e-011 3.01165e-026   
     length 0.868195   
     axis -1.92217e-014 -90 -90   XYZ
    dof rx rz
    limits (-90.0 90.0)
           (-45.0 45.0)
  end
  begin
     id 29
     name rfingers
     direction -1 -4.49048e-011 6.02585e-026   
     length 0.699961   
     axis -3.84436e-014 -90 -90   XYZ
    dof rx
    limits (0.0 90.0)
  end
  begin
     id 30
     name rthumb
     direction -0.707107 -6.34854e-011 0.707107   
     length 1.00501   
     axis -90 -45 -2.19363e-014   XYZ
    dof rx rz
    limits (-45.0 45.0)
           (-45.0 45.0)
  end
:hierarchy
  begin
    root lhipjoint rhipjoint lowerback
    lhipjoint lfemur
    lfemur ltibia
    ltibia lfoot
    lfoot ltoes
    rhipjoint rfemur
    rfemur rtibia
    rtibia rfoot
    rfoot rtoes
    lowerback upperback
    upperback thorax
    thorax lowerneck lclavicle rclavicle
    lowerneck upperneck
    upperneck head
    lclavicle lhumerus
    lhumerus lradius
    lradius lwrist
    lwrist lhand lthumb
    lhand lfingers
    rclavicle rhumerus
    rhumerus rradius
    rradius rwrist
    rwrist rhand rthumb
    rhand rfingers
  end

#!OML:ASF H:\ManfredObstacles\Project 1\Capture day 2\Session 1\male.ASF
:FULLY-SPECIFIED
:DEGREES
66
root 1.69656 14.6552 17.291 -166.517 -3.89356 184.179
lowerback 4.64825 6.98917 -0.772024
upperback 2.37955 9.07742 -3.17878
thorax 0.270286 4.4804 -3.20328
lowerneck -33.9297 -7.97187 -7.44468
upperneck 37.8787 -16.4499 10.9679
head 24.9753 -6.06468 2.08222
rclavicle -1.2921e-014 -5.40694e-014
rhumerus -20.1277 9.14339 -85.9667
rradius 76.1939
rwrist 8.63434
rhand -10.758 -4.05324
rfingers 7.12502
rthumb 15.2536 -33.4708
lclavicle -1.2921e-014 -5.40694e-014
lhumerus -60.4476 -19.3907 74.6999
lradius 81.6075
lwrist -19.426
lhand -17.3989 5.80924
lfingers 7.12502
lthumb 8.85044 35.6036
rfemur -6.32322 -9.08862 27.0612
rtibia 55.0618
rfoot 8.3539 -9.48865
rtoes -26.0035
lfemur -52.1944 1.61251 -21.3691
ltibia 61.57
lfoot -4.4726 30.5032
ltoes 11.1748
67
root 1.69463 14.6464 17.0635 -166.471 -4.63558 184.119
lowerback 4.90189 6.88391 -0.979628
upperback 2.51428 8.91203 -3.12764
thorax 0.220833 4.38966 -3.05874
lowerneck -34.1513 -8.3169 -7.74477
upperneck 37.495 -16.861 11.3652
head 24.9539 -6.17711 2.20605
rclavicle 2.18663e-014 -3.18055e-015
rhumerus -20.3609 8.42306 -85.9134
rradius 76.126
rwrist 8.30532
rhand -10.8504 -4.38711
rfingers 7.12502
rthumb 15.1646 -33.8115
lclavicle 2.18663e-014 -3.18055e-015
lhumerus -59.3667 -18.9948 74.9371
lradius 81.1343
lwrist -19.4793
lhand -17.5516 5.8529
lfingers 7.12502
lthumb 8.70304 35.6535
rfemur -8.48673 -10.2786 26.6477
rtibia 59.3793
rfoot 9.64047 -7.85191
rtoes -24.5139
lfemur -51.7278 1.60215 -21.4711
ltibia 62.2563
lfoot -5.07992 30.4533
ltoes 9.98048
68
root 1.6917 14.6407 16.8381 -166.477 -5.3071 184.055
lowerback 5.20878 6.76867 -1.19268
upperback 2.66162 8.72944 -3.05337
thorax 0.15129 4.28925 -2.89175
lowerneck -34.2397 -8.59919 -7.98496
upperneck 37.1162 -17.2088 11.7329
head 24.8596 -6.27323 2.32294
rclavicle -3.8763e-014 -1.35174e-014
rhumerus -20.5642 7.72129 -85.8554
rradius 75.9184
rwrist 8.16853
rhand -10.8873 -4.64198
rfingers 7.12502
rthumb 15.1291 -34.069
lclavicle -3.8763e-014 -1.35174e-014
lhumerus -58.2577 -18.5307 75.2705
lradius 80.6747
lwrist -19.5194
lhand -17.7367 5.91409
lfingers 7.12502
lthumb 8.52444 35.722
rfemur -10.7275 -11.3889 26.2052
rtibia 63.8968
rfoot 10.0174 -6.71637
rtoes -24.5705
lfemur -51.1398 1.74819 -21.597
ltibia 62.8435
lfoot -5.64166 30.3638
ltoes 8.70976
69
root 1.68826 14.6377 16.6158 -166.531 -5.91999 183.994
lowerback 5.57561 6.63481 -1.39936
upperback 2.81576 8.51821 -2.95625
thorax 0.053908 4.17367 -2.70893
lowerneck -34.3036 -8.82611 -8.16472
upperneck 36.7523 -17.469 12.036
head 24.7246 -6.34001 2.42114
rclavicle -5.66536e-014 7.95139e-016
rhumerus -20.7406 7.05485 -85.803
rradius 75.5542
rwrist 8.21264
rhand -10.8819 -4.84056
rfingers 7.12502
rthumb 15.1342 -34.2672
lclavicle -5.66536e-014 7.95139e-016
lhumerus -57.1266 -18.0055 75.6842
lradius 80.238
lwrist -19.5692
lhand -17.9436 5.96569
lfingers 7.12502
lthumb 8.32481 35.7817
rfemur -13.0459 -12.4336 25.7342
rtibia 68.604
rfoot 9.54674 -6.12376
rtoes -26.3208
lfemur -50.448 2.02912 -21.7323
ltibia 63.3411
lfoot -6.19089 30.2415
ltoes 7.42818
70
root 1.68454 14.6374 16.3977 -166.627 -6.48061 183.939
lowerback 6.02073 6.48351 -1.58079
upperback 2.95859 8.27986 -2.84955
thorax -0.0946681 4.04427 -2.53638
lowerneck -34.2888 -8.98922 -8.29323
upperneck 36.416 -17.6616 12.3064
head 24.5567 -6.3878 2.5152
rclavicle -4.96962e-014 -7.15625e-015
rhumerus -20.92 6.41617 -85.7679
rradius 75.0167
rwrist 8.38725
rhand -10.9197 -4.96173
rfingers 7.12502
rthumb 15.0978 -34.3911
lclavicle -4.96962e-014 -7.15625e-015
lhumerus -55.964 -17.458 76.1622
lradius 79.812
lwrist -19.6193
lhand -18.1762 5.9955
lfingers 7.12502
lthumb 8.10027 35.8203
rfemur -15.4543 -13.403 25.2313
rtibia 73.4851
rfoot 8.38088 -6.0488
rtoes -29.2651
lfemur -49.6745 2.41082 -21.8604
ltibia 63.759
lfoot -6.63646 30.0906
ltoes 6.08929
71
root 1.68089 14.6402 16.1834 -166.766 -6.98411 183.882
lowerback 6.52753 6.31294 -1.73848
upperback 3.10486 8.01151 -2.74315
thorax -0.268597 3.89923 -2.37874
lowerneck -34.2902 -9.08447 -8.33752
upperneck 36.1081 -17.7639 12.5121
head 24.3682 -6.3994 2.58826
rclavicle 1.96797e-014 3.65764e-014
rhumerus -21.1091 5.82293 -85.7532
rradius 74.3044
rwrist 8.82116
rhand -11.0485 -5.05033
rfingers 7.12502
rthumb 14.9737 -34.489
lclavicle 1.96797e-014 3.65764e-014
lhumerus -54.7248 -16.9006 76.6733
lradius 79.401
lwrist -19.6439
lhand -18.405 6.01169
lfingers 7.12502
lthumb 7.87943 35.8448
rfemur -17.9516 -14.2846 24.6718
rtibia 78.5099
rfoot 6.72592 -6.39679
rtoes -32.6273
lfemur -48.8172 2.86202 -21.972
ltibia 64.0986
lfoot -7.033 29.9195
ltoes 4.76762
72
root 1.67746 14.6469 15.9727 -166.943 -7.44683 183.814
lowerback 7.10271 6.11753 -1.86873
upperback 3.25278 7.70489 -2.65153
thorax -0.470904 3.73429 -2.25172
lowerneck -34.4135 -9.11392 -8.23232
upperneck 35.8426 -17.768 12.5864
head 24.1728 -6.3609 2.59362
rclavicle -4.25399e-014 5.56597e-015
rhumerus -21.3329 5.29078 -85.7553
rradius 73.4282
rwrist 9.48373
rhand -11.3397 -5.14181
rfingers 7.12502
rthumb 14.6933 -34.6011
lclavicle -4.25399e-014 5.56597e-015
lhumerus -53.3833 -16.3657 77.1798
lradius 78.9996
lwrist -19.6643
lhand -18.6189 5.97701
lfingers 7.12502
lthumb 7.67303 35.8178
rfemur -20.5421 -15.0899 24.0368
rtibia 83.6379
rfoot 4.89349 -7.04451
rtoes -35.3818
lfemur -47.8797 3.33944 -22.0615
ltibia 64.3557
lfoot -7.36453 29.7111
ltoes 3.41944
73
root 1.6739 14.659 15.7637 -167.16 -7.85693 183.713
lowerback 7.72154 5.90583 -2.00201
upperback 3.41276 7.36963 -2.57773
thorax -0.680533 3.55351 -2.13776
lowerneck -34.4742 -9.10767 -8.1657
upperneck 35.5708 -17.744 12.7293
head 23.977 -6.31855 2.65388
rclavicle 7.55382e-015 2.94201e-014
rhumerus -21.6357 4.82295 -85.7448
rradius 72.4356
rwrist 10.3414
rhand -11.8122 -5.2587
rfingers 7.12502
rthumb 14.238 -34.7507
lclavicle 7.55382e-015 2.94201e-014
lhumerus -51.9167 -15.881 77.6817
lradius 78.6134
lwrist -19.6748
lhand -18.834 5.94367
lfingers 7.12502
lthumb 7.46538 35.7919
rfemur -23.2133 -15.8061 23.2751
rtibia 88.8205
rfoot 2.80291 -7.86128
rtoes -37.5671
lfemur -46.8444 3.82827 -22.1428
ltibia 64.5201
lfoot -7.56621 29.4447
ltoes 1.95989
74
root 1.67003 14.6773 15.5559 -167.401 -8.23305 183.545
lowerback 8.37915 5.67474 -2.15271
upperback 3.57789 6.99912 -2.54664
thorax -0.900457 3.35337 -2.05259
lowerneck -34.5864 -9.06177 -8.03408
upperneck 35.317 -17.6847 12.8461
head 23.7907 -6.25525 2.69901
rclavicle -2.46493e-014 -1.35174e-014
rhumerus -22.0429 4.39899 -85.7029
rradius 71.3506
rwrist 11.3757
rhand -12.4318 -5.40024
rfingers 7.12502
rthumb 13.6409 -34.9333
lclavicle -2.46493e-014 -1.35174e-014
lhumerus -50.3089 -15.4996 78.1346
lradius 78.2418
lwrist -19.6938
lhand -19.0348 5.89046
lfingers 7.12502
lthumb 7.27156 35.7455
rfemur -25.9536 -16.4687 22.3284
rtibia 94.0194
rfoot 0.655388 -8.86437
rtoes -38.8428
lfemur -45.7165 4.29961 -22.2453
ltibia 64.5815
lfoot -7.65874 29.0934
ltoes 0.406638
75
root 1.66652 14.7015 15.3487 -167.658 -8.55978 183.302
lowerback 9.04607 5.4321 -2.35701
upperback 3.75591 6.60094 -2.55409
thorax -1.111 3.13707 -1.96836
lowerneck -34.7821 -8.99751 -7.89039
upperneck 35.0737 -17.6011 12.9646
head 23.6383 -6.17704 2.74996
rclavicle 5.96354e-014 2.22639e-014
rhumerus -22.5567 4.03318 -85.5998
rradius 70.204
rwrist 12.4193
rhand -13.1209 -5.59203
rfingers 7.12502
rthumb 12.9766 -35.1685
lclavicle 5.96354e-014 2.22639e-014
lhumerus -48.5324 -15.2318 78.5217
lradius 77.8859
lwrist -19.7154
lhand -19.2113 5.76477
lfingers 7.12502
lthumb 7.10122 35.6256
rfemur -28.7712 -17.0798 21.161
rtibia 99.2012
rfoot -1.55079 -10.0389
rtoes -39.1379
lfemur -44.5092 4.76534 -22.3781
ltibia 64.5399
lfoot -7.63612 28.6389
ltoes -1.24649
76
root 1.66328 14.7305 15.141 -167.941 -8.86936 182.966
lowerback 9.72482 5.1802 -2.61686
upperback 3.95244 6.17501 -2.60996
thorax -1.3061 2.90403 -1.89329
lowerneck -34.9087 -8.90163 -7.7175
upperneck 34.8068 -17.519 13.1295
head 23.4547 -6.09704 2.81888
rclavicle 7.15625e-015 9.54166e-015
rhumerus -23.1807 3.67975 -85.4069
rradius 69.0105
rwrist 13.3003
rhand -13.8303 -5.75526
rfingers 7.12502
rthumb 12.2927 -35.3739
lclavicle 7.15625e-015 9.54166e-015
lhumerus -46.5824 -15.1436 78.8191
lradius 77.566
lwrist -19.7569
lhand -19.384 5.58678
lfingers 7.12502
lthumb 6.93452 35.4532
rfemur -31.6183 -17.7051 19.7031
rtibia 104.325
rfoot -3.83443 -11.2727
rtoes -38.7578
lfemur -43.2047 5.20517 -22.5578
ltibia 64.3964
lfoot -7.49369 28.0817
ltoes -2.95304
77
root 1.66198 14.7625 14.9337 -168.247 -9.18765 182.552
lowerback 10.4008 4.91644 -2.94349
upperback 4.17483 5.7168 -2.69277
thorax -1.47295 2.65162 -1.79635
lowerneck -35.1045 -8.79624 -7.53785
upperneck 34.5719 -17.4459 13.3043
head 23.3277 -6.01517 2.88895
rclavicle 5.08889e-014 -3.33958e-014
rhumerus -23.8931 3.36775 -85.1
rradius 67.7877
rwrist 13.8022
rhand -14.5539 -5.91828
rfingers 7.12502
rthumb 11.595 -35.5775
lclavicle 5.08889e-014 -3.33958e-014
lhumerus -44.4354 -15.2529 79.0171
lradius 77.2964
lwrist -19.8193
lhand -19.5388 5.37902
lfingers 7.12502
lthumb 6.78508 35.2503
rfemur -34.4881 -18.4032 17.9376
rtibia 109.349
rfoot -6.15873 -12.4051
rtoes -38.0522
lfemur -41.8268 5.61295 -22.7636
ltibia 64.1641
lfoot -7.30879 27.4156
ltoes -4.65687
78
root 1.66336 14.7961 14.7264 -168.574 -9.55556 182.084
lowerback 11.0781 4.64082 -3.30009
upperback 4.40896 5.22968 -2.8013
thorax -1.62366 2.38254 -1.69736
lowerneck -35.3179 -8.6988 -7.37723
upperneck 34.3646 -17.4145 13.5126
head 23.2532 -5.94789 2.9673
rclavicle 9.54166e-015 -2.22639e-014
rhumerus -24.7045 3.01035 -84.6599
rradius 66.5326
rwrist 13.9135
rhand -15.1594 -5.99685
rfingers 7.12502
rthumb 11.011 -35.6881
lclavicle 9.54166e-015 -2.22639e-014
lhumerus -42.0956 -15.6281 79.0866
lradius 77.0792
lwrist -19.8757
lhand -19.6896 5.16915
lfingers 7.12502
lthumb 6.63944 35.0451
rfemur -37.3474 -19.2543 15.8439
rtibia 114.208
rfoot -8.49011 -13.2234
rtoes -37.3792
lfemur -40.3754 5.97008 -22.9619
ltibia 63.8242
lfoot -7.08314 26.6398
ltoes -6.31032
79
root 1.66801 14.8304 14.5184 -168.926 -10.0126 181.608
lowerback 11.7339 4.33568 -3.66656
upperback 4.65929 4.69717 -2.89541
thorax -1.74249 2.08938 -1.56141
lowerneck -35.5541 -8.60897 -7.28176
upperneck 34.2204 -17.4102 13.754
head 23.2662 -5.89665 3.06995
rclavicle -1.90833e-014 8.74653e-015
rhumerus -25.5866 2.64685 -84.0529
rradius 65.223
rwrist 13.7426
rhand -15.7025 -6.05563
rfingers 7.12502
rthumb 10.4872 -35.774
lclavicle -1.90833e-014 8.74653e-015
lhumerus -39.5551 -16.2289 79.0206
lradius 76.9125
lwrist -19.9227
lhand -19.8444 5.03878
lfingers 7.12502
lthumb 6.49007 34.9193
rfemur -40.1577 -20.3597 13.4221
rtibia 118.846
rfoot -10.8138 -13.5582
rtoes -37.208
lfemur -38.8624 6.25624 -23.1027
ltibia 63.4028
lfoot -6.8575 25.7856
ltoes -7.89366
80
root 1.67494 14.877 14.306 -169.31 -10.5864 181.171
lowerback 12.3787 3.99689 -3.99116
upperback 4.91062 4.12285 -2.96114
thorax -1.84675 1.77591 -1.40398
lowerneck -35.7942 -8.52414 -7.19762
upperneck 34.122 -17.4159 13.9699
head 23.3155 -5.85403 3.16048
rclavicle -1.14102e-013 5.08889e-014
rhumerus -26.5388 2.23605 -83.2612
rradius 63.8397
rwrist 13.3949
rhand -16.1784 -6.13738
rfingers 7.12502
rthumb 10.0281 -35.8785
lclavicle -1.14102e-013 5.08889e-014
lhumerus -36.8368 -17.0783 78.7773
lradius 76.7949
lwrist -19.9822
lhand -19.9971 5.00335
lfingers 7.12502
lthumb 6.34257 34.8884
rfemur -42.8071 -21.8131 10.695
rtibia 123.106
rfoot -13.1064 -13.3476
rtoes -37.8207
lfemur -37.2211 6.46056 -23.132
ltibia 62.8372
lfoot -6.66355 24.8758
ltoes -9.35262
